# Blender 4.4.3
# www.blender.org
mtllib cylinder1.mtl
o Cylinder
v 0.000000 0.785627 0.000000
v 0.000000 0.785627 0.000000
v 0.000000 1.000000 2.000000
v 0.000000 1.000000 2.000000
v 0.153268 0.770532 0.000000
v 0.195090 0.980785 2.000000
v 0.300647 0.725825 0.000000
v 0.382683 0.923879 2.000000
v 0.436471 0.653225 0.000000
v 0.555570 0.831469 2.000000
v 0.555522 0.555522 0.000000
v 0.707107 0.707107 2.000000
v 0.653225 0.436471 0.000000
v 0.831470 0.555570 2.000000
v 0.725825 0.300647 0.000000
v 0.923880 0.382683 2.000000
v 0.770532 0.153268 0.000000
v 0.980785 0.195090 2.000000
v 0.785627 0.000000 0.000000
v 1.000000 -0.000000 2.000000
v 0.770532 -0.153268 -0.000000
v 0.980785 -0.195091 2.000000
v 0.725825 -0.300647 -0.000000
v 0.923880 -0.382684 2.000000
v 0.653225 -0.436471 -0.000000
v 0.831470 -0.555571 2.000000
v 0.555522 -0.555522 -0.000000
v 0.707107 -0.707107 2.000000
v 0.436471 -0.653225 -0.000000
v 0.555570 -0.831470 2.000000
v 0.300647 -0.725825 -0.000000
v 0.382683 -0.923880 2.000000
v 0.153268 -0.770532 -0.000000
v 0.195090 -0.980786 2.000000
v 0.000000 -0.785627 -0.000000
v 0.000000 -1.000000 2.000000
v -0.153268 -0.770532 -0.000000
v -0.195090 -0.980786 2.000000
v -0.300647 -0.725825 -0.000000
v -0.382683 -0.923880 2.000000
v -0.436471 -0.653225 -0.000000
v -0.555570 -0.831470 2.000000
v -0.555522 -0.555522 -0.000000
v -0.707107 -0.707107 2.000000
v -0.653225 -0.436471 -0.000000
v -0.831470 -0.555571 2.000000
v -0.725825 -0.300647 -0.000000
v -0.923880 -0.382684 2.000000
v -0.770532 -0.153268 -0.000000
v -0.980785 -0.195091 2.000000
v -0.785627 0.000000 0.000000
v -1.000000 -0.000000 2.000000
v -0.770532 0.153268 0.000000
v -0.980785 0.195090 2.000000
v -0.725825 0.300647 0.000000
v -0.923880 0.382683 2.000000
v -0.653225 0.436471 0.000000
v -0.831470 0.555570 2.000000
v -0.555522 0.555522 0.000000
v -0.707107 0.707107 2.000000
v -0.436471 0.653225 0.000000
v -0.555570 0.831469 2.000000
v -0.300647 0.725825 0.000000
v -0.382683 0.923879 2.000000
v -0.153268 0.770532 0.000000
v -0.195090 0.980785 2.000000
v 0.000000 1.000000 0.500000
v 0.000000 1.000000 0.500000
v 0.000000 1.000000 1.000000
v 0.000000 1.000000 1.000000
v 0.000000 1.000000 1.500000
v 0.000000 1.000000 1.500000
v 0.195090 0.980785 1.500000
v 0.195090 0.980785 1.000000
v 0.195090 0.980785 0.500000
v 0.382683 0.923880 1.500000
v 0.382683 0.923880 1.000000
v 0.382683 0.923880 0.500000
v 0.555570 0.831470 1.500000
v 0.555570 0.831470 1.000000
v 0.555570 0.831470 0.500000
v 0.707107 0.707107 1.500000
v 0.707107 0.707107 1.000000
v 0.707107 0.707107 0.500000
v 0.831470 0.555570 1.500000
v 0.831470 0.555570 1.000000
v 0.831470 0.555570 0.500000
v 0.923880 0.382683 1.500000
v 0.923880 0.382683 1.000000
v 0.923880 0.382683 0.500000
v 0.980785 0.195090 1.500000
v 0.980785 0.195090 1.000000
v 0.980785 0.195090 0.500000
v 1.000000 -0.000000 1.500000
v 1.000000 -0.000000 1.000000
v 1.000000 -0.000000 0.500000
v 0.980785 -0.195091 1.500000
v 0.980785 -0.195090 1.000000
v 0.980785 -0.195090 0.500000
v 0.923880 -0.382684 1.500000
v 0.923880 -0.382684 1.000000
v 0.923880 -0.382684 0.500000
v 0.831470 -0.555570 1.500000
v 0.831470 -0.555570 1.000000
v 0.831470 -0.555570 0.500000
v 0.707107 -0.707107 1.500000
v 0.707107 -0.707107 1.000000
v 0.707107 -0.707107 0.500000
v 0.555570 -0.831470 1.500000
v 0.555570 -0.831470 1.000000
v 0.555570 -0.831470 0.500000
v 0.382683 -0.923880 1.500000
v 0.382683 -0.923880 1.000000
v 0.382683 -0.923880 0.500000
v 0.195090 -0.980785 1.500000
v 0.195090 -0.980785 1.000000
v 0.195090 -0.980785 0.500000
v 0.000000 -1.000000 1.500000
v 0.000000 -1.000000 1.000000
v 0.000000 -1.000000 0.500000
v -0.195090 -0.980785 1.500000
v -0.195090 -0.980785 1.000000
v -0.195090 -0.980785 0.500000
v -0.382683 -0.923880 1.500000
v -0.382683 -0.923880 1.000000
v -0.382683 -0.923880 0.500000
v -0.555570 -0.831470 1.500000
v -0.555570 -0.831470 1.000000
v -0.555570 -0.831470 0.500000
v -0.707107 -0.707107 1.500000
v -0.707107 -0.707107 1.000000
v -0.707107 -0.707107 0.500000
v -0.831470 -0.555570 1.500000
v -0.831470 -0.555570 1.000000
v -0.831470 -0.555570 0.500000
v -0.923880 -0.382684 1.500000
v -0.923880 -0.382684 1.000000
v -0.923880 -0.382684 0.500000
v -0.980785 -0.195091 1.500000
v -0.980785 -0.195090 1.000000
v -0.980785 -0.195090 0.500000
v -1.000000 -0.000000 1.500000
v -1.000000 -0.000000 1.000000
v -1.000000 -0.000000 0.500000
v -0.980785 0.195090 1.500000
v -0.980785 0.195090 1.000000
v -0.980785 0.195090 0.500000
v -0.923880 0.382683 1.500000
v -0.923880 0.382683 1.000000
v -0.923880 0.382683 0.500000
v -0.831470 0.555570 1.500000
v -0.831470 0.555570 1.000000
v -0.831470 0.555570 0.500000
v -0.707107 0.707107 1.500000
v -0.707107 0.707107 1.000000
v -0.707107 0.707107 0.500000
v -0.555570 0.831470 1.500000
v -0.555570 0.831470 1.000000
v -0.555570 0.831470 0.500000
v -0.382683 0.923880 1.500000
v -0.382683 0.923880 1.000000
v -0.382683 0.923880 0.500000
v -0.195090 0.980785 1.500000
v -0.195090 0.980785 1.000000
v -0.195090 0.980785 0.500000
vn -0.0000 1.0000 -0.0000
vn 0.1951 0.9808 -0.0000
vn 0.3827 0.9239 -0.0000
vn 0.5556 0.8315 -0.0000
vn 0.7071 0.7071 -0.0000
vn 0.8315 0.5556 -0.0000
vn 0.9239 0.3827 -0.0000
vn 0.9808 0.1951 -0.0000
vn 1.0000 -0.0000 -0.0000
vn 0.9808 -0.1951 -0.0000
vn 0.9239 -0.3827 -0.0000
vn 0.8315 -0.5556 -0.0000
vn 0.7071 -0.7071 -0.0000
vn 0.5556 -0.8315 -0.0000
vn 0.3827 -0.9239 -0.0000
vn 0.1951 -0.9808 -0.0000
vn -0.0000 -1.0000 -0.0000
vn -0.1951 -0.9808 -0.0000
vn -0.3827 -0.9239 -0.0000
vn -0.5556 -0.8315 -0.0000
vn -0.7071 -0.7071 -0.0000
vn -0.8315 -0.5556 -0.0000
vn -0.9239 -0.3827 -0.0000
vn -0.9808 -0.1951 -0.0000
vn -1.0000 -0.0000 -0.0000
vn -0.9808 0.1951 -0.0000
vn -0.9239 0.3827 -0.0000
vn -0.8315 0.5556 -0.0000
vn -0.7071 0.7071 -0.0000
vn -0.5556 0.8315 -0.0000
vn -0.3827 0.9239 -0.0000
vn -0.1951 0.9808 -0.0000
vn -0.1793 0.9014 -0.3941
vn -0.1912 0.9612 -0.1987
vn -0.0000 0.9801 -0.1987
vn -0.0000 0.9191 -0.3941
vn -0.3517 0.8491 -0.3941
vn -0.3751 0.9055 -0.1987
vn -0.5106 0.7642 -0.3941
vn -0.5445 0.8149 -0.1987
vn -0.6499 0.6499 -0.3941
vn -0.6930 0.6930 -0.1987
vn -0.7642 0.5106 -0.3941
vn -0.8149 0.5445 -0.1987
vn -0.8491 0.3517 -0.3941
vn -0.9055 0.3751 -0.1987
vn -0.9014 0.1793 -0.3941
vn -0.9612 0.1912 -0.1987
vn -0.9191 -0.0000 -0.3941
vn -0.9801 -0.0000 -0.1987
vn -0.9014 -0.1793 -0.3941
vn -0.9612 -0.1912 -0.1987
vn -0.8491 -0.3517 -0.3941
vn -0.9055 -0.3751 -0.1987
vn -0.7642 -0.5106 -0.3941
vn -0.8149 -0.5445 -0.1987
vn -0.6499 -0.6499 -0.3941
vn -0.6930 -0.6930 -0.1987
vn -0.5106 -0.7642 -0.3941
vn -0.5445 -0.8149 -0.1987
vn -0.3517 -0.8491 -0.3941
vn -0.3751 -0.9055 -0.1987
vn -0.1793 -0.9014 -0.3941
vn -0.1912 -0.9612 -0.1987
vn -0.0000 -0.9191 -0.3941
vn -0.0000 -0.9801 -0.1987
vn 0.1793 -0.9014 -0.3941
vn 0.1912 -0.9612 -0.1987
vn 0.3517 -0.8491 -0.3941
vn 0.3751 -0.9055 -0.1987
vn 0.5106 -0.7642 -0.3941
vn 0.5445 -0.8149 -0.1987
vn 0.6499 -0.6499 -0.3941
vn 0.6930 -0.6930 -0.1987
vn 0.7642 -0.5106 -0.3941
vn 0.8149 -0.5445 -0.1987
vn 0.8491 -0.3517 -0.3941
vn 0.9055 -0.3751 -0.1987
vn 0.9014 -0.1793 -0.3941
vn 0.9612 -0.1912 -0.1987
vn 0.9191 -0.0000 -0.3941
vn 0.9801 -0.0000 -0.1987
vn 0.9014 0.1793 -0.3941
vn 0.9612 0.1912 -0.1987
vn 0.8491 0.3517 -0.3941
vn 0.9055 0.3751 -0.1987
vn 0.7642 0.5106 -0.3941
vn 0.8149 0.5445 -0.1987
vn 0.6499 0.6499 -0.3941
vn 0.6930 0.6930 -0.1987
vn 0.5106 0.7642 -0.3941
vn 0.5445 0.8149 -0.1987
vn 0.3517 0.8491 -0.3941
vn 0.3751 0.9055 -0.1987
vn 0.1793 0.9014 -0.3941
vn 0.1912 0.9612 -0.1987
vt 1.000000 0.750000
vt 1.000000 1.000000
vt 0.968750 1.000000
vt 0.968750 0.750000
vt 0.937500 1.000000
vt 0.937500 0.750000
vt 0.906250 1.000000
vt 0.906250 0.750000
vt 0.875000 1.000000
vt 0.875000 0.750000
vt 0.843750 1.000000
vt 0.843750 0.750000
vt 0.812500 1.000000
vt 0.812500 0.750000
vt 0.781250 1.000000
vt 0.781250 0.750000
vt 0.750000 1.000000
vt 0.750000 0.750000
vt 0.718750 1.000000
vt 0.718750 0.750000
vt 0.687500 1.000000
vt 0.687500 0.750000
vt 0.656250 1.000000
vt 0.656250 0.750000
vt 0.625000 1.000000
vt 0.625000 0.750000
vt 0.593750 1.000000
vt 0.593750 0.750000
vt 0.562500 1.000000
vt 0.562500 0.750000
vt 0.531250 1.000000
vt 0.531250 0.750000
vt 0.500000 1.000000
vt 0.500000 0.750000
vt 0.468750 1.000000
vt 0.468750 0.750000
vt 0.437500 1.000000
vt 0.437500 0.750000
vt 0.406250 1.000000
vt 0.406250 0.750000
vt 0.375000 1.000000
vt 0.375000 0.750000
vt 0.343750 1.000000
vt 0.343750 0.750000
vt 0.312500 1.000000
vt 0.312500 0.750000
vt 0.281250 1.000000
vt 0.281250 0.750000
vt 0.250000 1.000000
vt 0.250000 0.750000
vt 0.218750 1.000000
vt 0.218750 0.750000
vt 0.187500 1.000000
vt 0.187500 0.750000
vt 0.156250 1.000000
vt 0.156250 0.750000
vt 0.125000 1.000000
vt 0.125000 0.750000
vt 0.093750 1.000000
vt 0.093750 0.750000
vt 0.062500 1.000000
vt 0.062500 0.750000
vt 0.031250 1.000000
vt 0.031250 0.750000
vt 0.000000 1.000000
vt 0.000000 0.750000
vt 0.031250 0.000000
vt 0.031250 0.250000
vt 0.000000 0.250000
vt 0.000000 0.000000
vt 0.031250 0.500000
vt 0.000000 0.500000
vt 0.062500 0.000000
vt 0.062500 0.250000
vt 0.062500 0.500000
vt 0.093750 0.000000
vt 0.093750 0.250000
vt 0.093750 0.500000
vt 0.125000 0.000000
vt 0.125000 0.250000
vt 0.125000 0.500000
vt 0.156250 0.000000
vt 0.156250 0.250000
vt 0.156250 0.500000
vt 0.187500 0.000000
vt 0.187500 0.250000
vt 0.187500 0.500000
vt 0.218750 0.000000
vt 0.218750 0.250000
vt 0.218750 0.500000
vt 0.250000 0.000000
vt 0.250000 0.250000
vt 0.250000 0.500000
vt 0.281250 0.000000
vt 0.281250 0.250000
vt 0.281250 0.500000
vt 0.312500 0.000000
vt 0.312500 0.250000
vt 0.312500 0.500000
vt 0.343750 0.000000
vt 0.343750 0.250000
vt 0.343750 0.500000
vt 0.375000 0.000000
vt 0.375000 0.250000
vt 0.375000 0.500000
vt 0.406250 0.000000
vt 0.406250 0.250000
vt 0.406250 0.500000
vt 0.437500 0.000000
vt 0.437500 0.250000
vt 0.437500 0.500000
vt 0.468750 0.000000
vt 0.468750 0.250000
vt 0.468750 0.500000
vt 0.500000 0.000000
vt 0.500000 0.250000
vt 0.500000 0.500000
vt 0.531250 0.000000
vt 0.531250 0.250000
vt 0.531250 0.500000
vt 0.562500 0.000000
vt 0.562500 0.250000
vt 0.562500 0.500000
vt 0.593750 0.000000
vt 0.593750 0.250000
vt 0.593750 0.500000
vt 0.625000 0.000000
vt 0.625000 0.250000
vt 0.625000 0.500000
vt 0.656250 0.000000
vt 0.656250 0.250000
vt 0.656250 0.500000
vt 0.687500 0.000000
vt 0.687500 0.250000
vt 0.687500 0.500000
vt 0.718750 0.000000
vt 0.718750 0.250000
vt 0.718750 0.500000
vt 0.750000 0.000000
vt 0.750000 0.250000
vt 0.750000 0.500000
vt 0.781250 0.000000
vt 0.781250 0.250000
vt 0.781250 0.500000
vt 0.812500 0.000000
vt 0.812500 0.250000
vt 0.812500 0.500000
vt 0.843750 0.000000
vt 0.843750 0.250000
vt 0.843750 0.500000
vt 0.875000 0.000000
vt 0.875000 0.250000
vt 0.875000 0.500000
vt 0.906250 0.000000
vt 0.906250 0.250000
vt 0.906250 0.500000
vt 0.937500 0.000000
vt 0.937500 0.250000
vt 0.937500 0.500000
vt 0.968750 0.000000
vt 0.968750 0.250000
vt 0.968750 0.500000
vt 1.000000 0.000000
vt 1.000000 0.250000
vt 1.000000 0.500000
s 1
f 72/1/1 4/2/1 6/3/2
f 72/1/1 6/3/2 73/4/2
f 73/4/2 6/3/2 8/5/3
f 73/4/2 8/5/3 76/6/3
f 76/6/3 8/5/3 10/7/4
f 76/6/3 10/7/4 79/8/4
f 79/8/4 10/7/4 12/9/5
f 79/8/4 12/9/5 82/10/5
f 82/10/5 12/9/5 14/11/6
f 82/10/5 14/11/6 85/12/6
f 85/12/6 14/11/6 16/13/7
f 85/12/6 16/13/7 88/14/7
f 88/14/7 16/13/7 18/15/8
f 88/14/7 18/15/8 91/16/8
f 91/16/8 18/15/8 20/17/9
f 91/16/8 20/17/9 94/18/9
f 94/18/9 20/17/9 22/19/10
f 94/18/9 22/19/10 97/20/10
f 97/20/10 22/19/10 24/21/11
f 97/20/10 24/21/11 100/22/11
f 100/22/11 24/21/11 26/23/12
f 100/22/11 26/23/12 103/24/12
f 103/24/12 26/23/12 28/25/13
f 103/24/12 28/25/13 106/26/13
f 106/26/13 28/25/13 30/27/14
f 106/26/13 30/27/14 109/28/14
f 109/28/14 30/27/14 32/29/15
f 109/28/14 32/29/15 112/30/15
f 112/30/15 32/29/15 34/31/16
f 112/30/15 34/31/16 115/32/16
f 115/32/16 34/31/16 36/33/17
f 115/32/16 36/33/17 118/34/17
f 118/34/17 36/33/17 38/35/18
f 118/34/17 38/35/18 121/36/18
f 121/36/18 38/35/18 40/37/19
f 121/36/18 40/37/19 124/38/19
f 124/38/19 40/37/19 42/39/20
f 124/38/19 42/39/20 127/40/20
f 127/40/20 42/39/20 44/41/21
f 127/40/20 44/41/21 130/42/21
f 130/42/21 44/41/21 46/43/22
f 130/42/21 46/43/22 133/44/22
f 133/44/22 46/43/22 48/45/23
f 133/44/22 48/45/23 136/46/23
f 136/46/23 48/45/23 50/47/24
f 136/46/23 50/47/24 139/48/24
f 139/48/24 50/47/24 52/49/25
f 139/48/24 52/49/25 142/50/25
f 142/50/25 52/49/25 54/51/26
f 142/50/25 54/51/26 145/52/26
f 145/52/26 54/51/26 56/53/27
f 145/52/26 56/53/27 148/54/27
f 148/54/27 56/53/27 58/55/28
f 148/54/27 58/55/28 151/56/28
f 151/56/28 58/55/28 60/57/29
f 151/56/28 60/57/29 154/58/29
f 154/58/29 60/57/29 62/59/30
f 154/58/29 62/59/30 157/60/30
f 157/60/30 62/59/30 64/61/31
f 157/60/30 64/61/31 160/62/31
f 160/62/31 64/61/31 66/63/32
f 160/62/31 66/63/32 163/64/32
f 163/64/32 66/63/32 3/65/1
f 163/64/32 3/65/1 71/66/1
f 65/67/33 165/68/34 67/69/35
f 65/67/33 67/69/35 1/70/36
f 165/68/34 164/71/32 69/72/1
f 165/68/34 69/72/1 67/69/35
f 164/71/32 163/64/32 71/66/1
f 164/71/32 71/66/1 69/72/1
f 63/73/37 162/74/38 165/68/34
f 63/73/37 165/68/34 65/67/33
f 162/74/38 161/75/31 164/71/32
f 162/74/38 164/71/32 165/68/34
f 161/75/31 160/62/31 163/64/32
f 161/75/31 163/64/32 164/71/32
f 61/76/39 159/77/40 162/74/38
f 61/76/39 162/74/38 63/73/37
f 159/77/40 158/78/30 161/75/31
f 159/77/40 161/75/31 162/74/38
f 158/78/30 157/60/30 160/62/31
f 158/78/30 160/62/31 161/75/31
f 59/79/41 156/80/42 159/77/40
f 59/79/41 159/77/40 61/76/39
f 156/80/42 155/81/29 158/78/30
f 156/80/42 158/78/30 159/77/40
f 155/81/29 154/58/29 157/60/30
f 155/81/29 157/60/30 158/78/30
f 57/82/43 153/83/44 156/80/42
f 57/82/43 156/80/42 59/79/41
f 153/83/44 152/84/28 155/81/29
f 153/83/44 155/81/29 156/80/42
f 152/84/28 151/56/28 154/58/29
f 152/84/28 154/58/29 155/81/29
f 55/85/45 150/86/46 153/83/44
f 55/85/45 153/83/44 57/82/43
f 150/86/46 149/87/27 152/84/28
f 150/86/46 152/84/28 153/83/44
f 149/87/27 148/54/27 151/56/28
f 149/87/27 151/56/28 152/84/28
f 53/88/47 147/89/48 150/86/46
f 53/88/47 150/86/46 55/85/45
f 147/89/48 146/90/26 149/87/27
f 147/89/48 149/87/27 150/86/46
f 146/90/26 145/52/26 148/54/27
f 146/90/26 148/54/27 149/87/27
f 51/91/49 144/92/50 147/89/48
f 51/91/49 147/89/48 53/88/47
f 144/92/50 143/93/25 146/90/26
f 144/92/50 146/90/26 147/89/48
f 143/93/25 142/50/25 145/52/26
f 143/93/25 145/52/26 146/90/26
f 49/94/51 141/95/52 144/92/50
f 49/94/51 144/92/50 51/91/49
f 141/95/52 140/96/24 143/93/25
f 141/95/52 143/93/25 144/92/50
f 140/96/24 139/48/24 142/50/25
f 140/96/24 142/50/25 143/93/25
f 47/97/53 138/98/54 141/95/52
f 47/97/53 141/95/52 49/94/51
f 138/98/54 137/99/23 140/96/24
f 138/98/54 140/96/24 141/95/52
f 137/99/23 136/46/23 139/48/24
f 137/99/23 139/48/24 140/96/24
f 45/100/55 135/101/56 138/98/54
f 45/100/55 138/98/54 47/97/53
f 135/101/56 134/102/22 137/99/23
f 135/101/56 137/99/23 138/98/54
f 134/102/22 133/44/22 136/46/23
f 134/102/22 136/46/23 137/99/23
f 43/103/57 132/104/58 135/101/56
f 43/103/57 135/101/56 45/100/55
f 132/104/58 131/105/21 134/102/22
f 132/104/58 134/102/22 135/101/56
f 131/105/21 130/42/21 133/44/22
f 131/105/21 133/44/22 134/102/22
f 41/106/59 129/107/60 132/104/58
f 41/106/59 132/104/58 43/103/57
f 129/107/60 128/108/20 131/105/21
f 129/107/60 131/105/21 132/104/58
f 128/108/20 127/40/20 130/42/21
f 128/108/20 130/42/21 131/105/21
f 39/109/61 126/110/62 129/107/60
f 39/109/61 129/107/60 41/106/59
f 126/110/62 125/111/19 128/108/20
f 126/110/62 128/108/20 129/107/60
f 125/111/19 124/38/19 127/40/20
f 125/111/19 127/40/20 128/108/20
f 37/112/63 123/113/64 126/110/62
f 37/112/63 126/110/62 39/109/61
f 123/113/64 122/114/18 125/111/19
f 123/113/64 125/111/19 126/110/62
f 122/114/18 121/36/18 124/38/19
f 122/114/18 124/38/19 125/111/19
f 35/115/65 120/116/66 123/113/64
f 35/115/65 123/113/64 37/112/63
f 120/116/66 119/117/17 122/114/18
f 120/116/66 122/114/18 123/113/64
f 119/117/17 118/34/17 121/36/18
f 119/117/17 121/36/18 122/114/18
f 33/118/67 117/119/68 120/116/66
f 33/118/67 120/116/66 35/115/65
f 117/119/68 116/120/16 119/117/17
f 117/119/68 119/117/17 120/116/66
f 116/120/16 115/32/16 118/34/17
f 116/120/16 118/34/17 119/117/17
f 31/121/69 114/122/70 117/119/68
f 31/121/69 117/119/68 33/118/67
f 114/122/70 113/123/15 116/120/16
f 114/122/70 116/120/16 117/119/68
f 113/123/15 112/30/15 115/32/16
f 113/123/15 115/32/16 116/120/16
f 29/124/71 111/125/72 114/122/70
f 29/124/71 114/122/70 31/121/69
f 111/125/72 110/126/14 113/123/15
f 111/125/72 113/123/15 114/122/70
f 110/126/14 109/28/14 112/30/15
f 110/126/14 112/30/15 113/123/15
f 27/127/73 108/128/74 111/125/72
f 27/127/73 111/125/72 29/124/71
f 108/128/74 107/129/13 110/126/14
f 108/128/74 110/126/14 111/125/72
f 107/129/13 106/26/13 109/28/14
f 107/129/13 109/28/14 110/126/14
f 25/130/75 105/131/76 108/128/74
f 25/130/75 108/128/74 27/127/73
f 105/131/76 104/132/12 107/129/13
f 105/131/76 107/129/13 108/128/74
f 104/132/12 103/24/12 106/26/13
f 104/132/12 106/26/13 107/129/13
f 23/133/77 102/134/78 105/131/76
f 23/133/77 105/131/76 25/130/75
f 102/134/78 101/135/11 104/132/12
f 102/134/78 104/132/12 105/131/76
f 101/135/11 100/22/11 103/24/12
f 101/135/11 103/24/12 104/132/12
f 21/136/79 99/137/80 102/134/78
f 21/136/79 102/134/78 23/133/77
f 99/137/80 98/138/10 101/135/11
f 99/137/80 101/135/11 102/134/78
f 98/138/10 97/20/10 100/22/11
f 98/138/10 100/22/11 101/135/11
f 19/139/81 96/140/82 99/137/80
f 19/139/81 99/137/80 21/136/79
f 96/140/82 95/141/9 98/138/10
f 96/140/82 98/138/10 99/137/80
f 95/141/9 94/18/9 97/20/10
f 95/141/9 97/20/10 98/138/10
f 17/142/83 93/143/84 96/140/82
f 17/142/83 96/140/82 19/139/81
f 93/143/84 92/144/8 95/141/9
f 93/143/84 95/141/9 96/140/82
f 92/144/8 91/16/8 94/18/9
f 92/144/8 94/18/9 95/141/9
f 15/145/85 90/146/86 93/143/84
f 15/145/85 93/143/84 17/142/83
f 90/146/86 89/147/7 92/144/8
f 90/146/86 92/144/8 93/143/84
f 89/147/7 88/14/7 91/16/8
f 89/147/7 91/16/8 92/144/8
f 13/148/87 87/149/88 90/146/86
f 13/148/87 90/146/86 15/145/85
f 87/149/88 86/150/6 89/147/7
f 87/149/88 89/147/7 90/146/86
f 86/150/6 85/12/6 88/14/7
f 86/150/6 88/14/7 89/147/7
f 11/151/89 84/152/90 87/149/88
f 11/151/89 87/149/88 13/148/87
f 84/152/90 83/153/5 86/150/6
f 84/152/90 86/150/6 87/149/88
f 83/153/5 82/10/5 85/12/6
f 83/153/5 85/12/6 86/150/6
f 9/154/91 81/155/92 84/152/90
f 9/154/91 84/152/90 11/151/89
f 81/155/92 80/156/4 83/153/5
f 81/155/92 83/153/5 84/152/90
f 80/156/4 79/8/4 82/10/5
f 80/156/4 82/10/5 83/153/5
f 7/157/93 78/158/94 81/155/92
f 7/157/93 81/155/92 9/154/91
f 78/158/94 77/159/3 80/156/4
f 78/158/94 80/156/4 81/155/92
f 77/159/3 76/6/3 79/8/4
f 77/159/3 79/8/4 80/156/4
f 5/160/95 75/161/96 78/158/94
f 5/160/95 78/158/94 7/157/93
f 75/161/96 74/162/2 77/159/3
f 75/161/96 77/159/3 78/158/94
f 74/162/2 73/4/2 76/6/3
f 74/162/2 76/6/3 77/159/3
f 2/163/36 68/164/35 75/161/96
f 2/163/36 75/161/96 5/160/95
f 68/164/35 70/165/1 74/162/2
f 68/164/35 74/162/2 75/161/96
f 70/165/1 72/1/1 73/4/2
f 70/165/1 73/4/2 74/162/2
